<?xml version="1.0" ?><!DOCTYPE svg  PUBLIC '-//W3C//DTD SVG 1.1//EN'  'http://www.w3.org/Graphics/SVG/1.1/DTD/svg11.dtd'><svg xmlns="http://www.w3.org/2000/svg" xmlns:xlink="http://www.w3.org/1999/xlink"  width="100%" height="100%" viewBox="0 0 64 64" version="1.1" xml:space="preserve" style="fill-rule:evenodd;clip-rule:evenodd;stroke-linejoin:round;stroke-miterlimit:2;"><g transform="matrix(1,0,0,1,-668,-168)"><g id="Artboard1" transform="matrix(1,0,0,1,420,0)"><rect x="0" y="0" width="400" height="400" style="fill:none;"/><g><g transform="matrix(0.24595,0,0,1,227.658,4)"><path d="M263,221L286,221C288.244,221 290.066,220.552 290.066,220C290.066,219.448 288.244,219 286,219L263,219C260.756,219 258.934,219.448 258.934,220C258.934,220.552 260.756,221 263,221Z"/></g><g transform="matrix(0.0434783,0,0,1,290.565,4)"><path d="M263,221L286,221C298.694,221 309,220.552 309,220C309,219.448 298.694,219 286,219L263,219C250.306,219 240,219.448 240,220C240,220.552 250.306,221 263,221Z"/></g><g transform="matrix(0.0434783,0,0,1,295.565,4)"><path d="M263,221L286,221C298.694,221 309,220.552 309,220C309,219.448 298.694,219 286,219L263,219C250.306,219 240,219.448 240,220C240,220.552 250.306,221 263,221Z"/></g><g transform="matrix(1,0,0,1,-447.124,0)"><path d="M709.4,224.998C709.422,224.999 709.445,225 709.467,225L735.467,225C736.019,225 736.467,224.552 736.467,224C736.467,223.448 736.019,223 735.467,223L726.855,223L731.024,218.831C731.077,218.795 731.127,218.754 731.174,218.707C731.221,218.66 731.262,218.61 731.298,218.557L754.161,195.694C754.551,195.303 754.551,194.67 754.161,194.28L735.174,175.293C734.784,174.902 734.15,174.902 733.76,175.293C733.76,175.293 708.239,200.813 699.588,209.464C698.651,210.402 698.124,211.674 698.124,213C698.124,214.326 698.651,215.598 699.588,216.536C702.848,219.795 707.76,224.707 707.76,224.707C707.948,224.895 708.203,225.001 708.469,225L709.4,224.998ZM711.467,200.414L729.04,217.987L724.063,222.963L708.88,222.999C708.88,222.999 701.003,215.121 701.003,215.121C700.44,214.559 700.124,213.796 700.124,213C700.124,212.204 700.44,211.441 701.003,210.879L711.467,200.414ZM712.881,199L734.467,177.414C734.467,177.414 752.04,194.987 752.04,194.987L730.454,216.573L712.881,199ZM745.917,193.793L728.917,210.793C728.527,211.183 728.527,211.817 728.917,212.207C729.307,212.597 729.941,212.597 730.331,212.207L747.331,195.207C747.721,194.817 747.721,194.183 747.331,193.793C746.941,193.403 746.307,193.403 745.917,193.793ZM742.917,190.793L725.917,207.793C725.527,208.183 725.527,208.817 725.917,209.207C726.307,209.597 726.941,209.597 727.331,209.207L744.331,192.207C744.721,191.817 744.721,191.183 744.331,190.793C743.941,190.403 743.307,190.403 742.917,190.793ZM739.917,187.793L722.917,204.793C722.527,205.183 722.527,205.817 722.917,206.207C723.307,206.597 723.941,206.597 724.331,206.207L741.331,189.207C741.721,188.817 741.721,188.183 741.331,187.793C740.941,187.403 740.307,187.403 739.917,187.793ZM736.917,184.793L719.917,201.793C719.527,202.183 719.527,202.817 719.917,203.207C720.307,203.597 720.941,203.597 721.331,203.207L738.331,186.207C738.721,185.817 738.721,185.183 738.331,184.793C737.941,184.403 737.307,184.403 736.917,184.793ZM733.917,181.793L716.917,198.793C716.527,199.183 716.527,199.817 716.917,200.207C717.307,200.597 717.941,200.597 718.331,200.207L735.331,183.207C735.721,182.817 735.721,182.183 735.331,181.793C734.941,181.403 734.307,181.403 733.917,181.793Z"/></g></g></g></g></svg>