<?xml version="1.0" encoding="utf-8"?>
<!-- Generator: Adobe Illustrator 28.1.0, SVG Export Plug-In . SVG Version: 6.00 Build 0)  -->
<svg version="1.1" id="Слой_1" xmlns="http://www.w3.org/2000/svg" xmlns:xlink="http://www.w3.org/1999/xlink" x="0px" y="0px"
	 viewBox="0 0 500 350" style="enable-background:new 0 0 500 350;" xml:space="preserve">
<style type="text/css">
	.st0{fill-rule:evenodd;clip-rule:evenodd;fill:#fff;stroke:#fff;stroke-miterlimit:10;}
	.st1{fill-rule:evenodd;clip-rule:evenodd;fill:#070C15;}
</style>
<path class="st0" d="M255.1,202.48L481.54,14.84c5.76-4.77,2.38-14.14-5.1-14.14H23.56c-7.48,0-10.86,9.36-5.1,14.14L244.9,202.48
	C247.86,204.93,252.14,204.93,255.1,202.48z"/>
<g id="Page-1">
	<g id="Group" transform="translate(0.000000, 1.000000)">
		<path id="Fill-160" class="st1" d="M306,97.63l2.62-6.89c0.29-0.76,0.1-1.62-0.49-2.2c-0.59-0.58-1.48-0.79-2.28-0.53l-5.75,1.84
			l-3.6-1.72c-0.77-0.36-1.7-0.27-2.37,0.25c-0.67,0.52-0.97,1.37-0.75,2.17l1.78,6.62c-6.59,2.16-11.77,8.55-13.95,15.49
			l3.15-54.37h2.95c1.22,0,2.21-0.95,2.21-2.12c0-1.17-0.99-2.12-2.21-2.12h-6.17c-0.8-8.95-5.94-18.32-13.54-21.85l3.42-6.85
			c0.38-0.77,0.25-1.68-0.34-2.31c-0.59-0.64-1.51-0.88-2.35-0.6l-5.92,1.89l-5.92-1.89c-0.81-0.26-1.71-0.05-2.3,0.55
			c-0.59,0.6-0.76,1.47-0.45,2.24l2.58,6.21c-4.77,1.35-9.32,4.68-12.86,9.51l-0.3-0.04v-8c0-0.83-0.51-1.58-1.3-1.93
			c-0.79-0.34-1.71-0.21-2.37,0.34l-4.41,3.71h-5.79c-0.85,0-1.62,0.47-1.99,1.2s-0.26,1.61,0.27,2.24l4.88,5.81
			c-2.79,2.31-5.04,5.69-6.46,9.79h-4.91c-1.22,0-2.21,0.95-2.21,2.12c0,1.17,0.99,2.12,2.21,2.12h1.71l1.58,27.27
			c-2.57-1.17-5.16-1.92-7.7-2.25V73.09c0-0.76-0.43-1.47-1.13-1.84c-0.7-0.37-1.55-0.36-2.23,0.04l-6.71,3.92h-6
			c-0.8,0-1.53,0.41-1.92,1.08c-0.39,0.67-0.38,1.48,0.04,2.13l4.88,7.67c-3.69,2.33-6.93,5.97-9.36,10.68
			c-4.39,8.49-5.29,18.6-2.31,25.75c4.97,11.91,13.05,11.91,30.74,11.91c1.74,0,3.45-0.2,5.11-0.58c0.4,0.36,0.93,0.58,1.51,0.58
			h48.55c1.17,0,2.14-0.88,2.2-2l0.51-8.8c1.33,5.12,5.84,10.8,19.35,10.8c17.28,0,19.86-9.28,19.86-14.81
			C319.78,110.92,314.1,101.07,306,97.63L306,97.63z M261.71,28.56c0.45,0.15,0.94,0.15,1.4,0l1.68-0.54l-1.45,2.9
			c-0.24-0.04-0.47-0.1-0.71-0.12c-0.61-0.06-1.23-0.04-1.85-0.03l-1.2-2.88L261.71,28.56L261.71,28.56z M262.17,35
			c7.85,0.8,13.6,10.25,14.52,19.05h-15.05c-3.1-5.25-8.09-9.86-13.59-11.98C251.48,37.97,256.56,34.45,262.17,35L262.17,35z
			 M233.91,39.25h2.01c0.54,0,1.05-0.19,1.45-0.52l1.37-1.15v3.58c-0.43,0.09-0.87,0.18-1.3,0.32c-0.43,0.13-0.84,0.33-1.25,0.5
			L233.91,39.25L233.91,39.25z M238.81,45.49c5.91-1.86,13.2,2.62,17.6,8.56h-25.73C232.5,49.68,235.41,46.55,238.81,45.49
			L238.81,45.49z M204.54,79.44h2.69c0.41,0,0.8-0.11,1.15-0.31l3.88-2.27v6.34c-1.16,0.09-2.31,0.25-3.42,0.54
			c-0.44,0.12-0.86,0.28-1.29,0.43L204.54,79.44L204.54,79.44z M196.04,120.96c-2.5-5.99-1.63-14.95,2.16-22.3
			c2.23-4.31,5.14-7.55,8.42-9.42l0.25,0.03c0.39,0,0.79-0.1,1.15-0.31c0.3-0.18,0.53-0.42,0.7-0.69c0.43-0.16,0.87-0.33,1.31-0.44
			c0.98-0.26,2-0.39,3.04-0.44c0.38,0.31,0.87,0.52,1.41,0.52c0.5,0,0.94-0.19,1.3-0.45c2.88,0.31,5.9,1.35,8.89,3.04l2.27,39.17
			c-1.38,0.33-2.8,0.55-4.26,0.55C204.25,130.2,199.76,129.87,196.04,120.96L196.04,120.96z M275.77,130.2h-44.38l-4.16-71.8
			l0.34,0.04c0.28,0,0.54-0.06,0.79-0.16h51.57L275.77,130.2L275.77,130.2z M298.85,93.98l0.08,0.04c0.52,0.25,1.13,0.29,1.69,0.11
			l2.28-0.73l-1.17,3.08c-0.6-0.07-1.2-0.12-1.81-0.12l-0.42,0.03L298.85,93.98L298.85,93.98z M299.92,130.2
			c-15.45,0-15.45-7.96-15.45-10.58c0-8.57,7.13-19.04,15.45-19.04c8.32,0,15.45,10.47,15.45,19.04
			C315.37,122.24,315.37,130.2,299.92,130.2L299.92,130.2z"/>
		<path id="Fill-161" class="st1" d="M269.15,70.98c-1.23-0.03-2.26,0.83-2.33,1.99l-2.21,38.07c-0.07,1.17,0.86,2.17,2.08,2.23
			l0.12,0c1.16,0,2.14-0.87,2.2-2l2.21-38.07C271.3,72.04,270.36,71.04,269.15,70.98"/>
		<path id="Fill-162" class="st1" d="M238.01,70.98c-1.22,0.06-2.15,1.06-2.08,2.23l2.21,38.07c0.06,1.13,1.04,2,2.2,2l0.13,0
			c1.22-0.06,2.15-1.06,2.08-2.23l-2.21-38.07C240.26,71.81,239.26,70.96,238.01,70.98"/>
		<path id="Fill-163" class="st1" d="M254.2,70.98c-1.22,0-2.21,0.95-2.21,2.12v38.07c0,1.17,0.99,2.12,2.21,2.12
			c1.22,0,2.21-0.95,2.21-2.12V73.09C256.4,71.92,255.42,70.98,254.2,70.98"/>
		<path id="Fill-164" class="st1" d="M207.23,56.17c1.22,0,2.19-0.94,2.2-2.1c0.01-1.16-0.97-2.12-2.19-2.13
			c-1.11-0.01-6.63-0.37-6.63-6.35c0-2.92,1.13-3.47,3.19-4.45c2.38-1.14,5.63-2.7,5.63-8.24c0-4.29-2.03-7.61-5.73-9.34
			c-1.1-0.52-2.42-0.08-2.95,0.97c-0.54,1.05-0.08,2.32,1.01,2.83c2.19,1.02,3.25,2.84,3.25,5.54c0,2.92-1.13,3.47-3.19,4.45
			c-2.38,1.14-5.63,2.7-5.63,8.24C196.2,53.96,203.42,56.17,207.23,56.17"/>
		<path id="Fill-165" class="st1" d="M308.75,69.96c-1.22,0-2.21,0.95-2.21,2.12c0,1.17,0.99,2.12,2.21,2.12
			c3.82,0,11.03-2.21,11.03-10.58c0-5.54-3.26-7.1-5.63-8.24c-2.06-0.99-3.19-1.53-3.19-4.45c0-2.7,1.06-4.51,3.25-5.54
			c1.09-0.51,1.55-1.78,1.01-2.83c-0.53-1.05-1.86-1.49-2.95-0.97c-3.69,1.73-5.73,5.04-5.73,9.34c0,5.54,3.26,7.1,5.63,8.24
			c2.06,0.99,3.19,1.53,3.19,4.45C315.37,69.58,309.85,69.94,308.75,69.96"/>
		<path id="Fill-166" class="st1" d="M293.3,40.34c-1.22,0-2.21,0.95-2.21,2.12c0,1.17,0.99,2.12,2.21,2.12
			c3.82,0,11.03-2.21,11.03-10.58c0-5.54-3.26-7.1-5.63-8.24c-2.06-0.99-3.2-1.53-3.2-4.45c0-2.7,1.06-4.51,3.25-5.54
			c1.09-0.51,1.55-1.78,1.01-2.83c-0.53-1.05-1.86-1.49-2.95-0.97c-3.69,1.73-5.73,5.04-5.73,9.34c0,5.54,3.26,7.1,5.63,8.24
			c2.06,0.99,3.19,1.53,3.19,4.45C299.92,39.97,294.4,40.33,293.3,40.34"/>
	</g>
</g>
</svg>
